<?xml version="1.0" encoding="UTF-8" standalone="no"?>
<!-- Created with Inkscape (http://www.inkscape.org/) -->

<svg
   width="128.46167mm"
   height="40.075687mm"
   viewBox="0 0 128.46167 40.075687"
   version="1.1"
   id="svg5"
   inkscape:version="1.1.2 (b8e25be833, 2022-02-05)"
   sodipodi:docname="SCAF_logo_color_horizontal.svg"
   xmlns:inkscape="http://www.inkscape.org/namespaces/inkscape"
   xmlns:sodipodi="http://sodipodi.sourceforge.net/DTD/sodipodi-0.dtd"
   xmlns="http://www.w3.org/2000/svg"
   xmlns:svg="http://www.w3.org/2000/svg">
  <sodipodi:namedview
     id="namedview7"
     pagecolor="#ffffff"
     bordercolor="#111111"
     borderopacity="1"
     inkscape:pageshadow="0"
     inkscape:pageopacity="0"
     inkscape:pagecheckerboard="1"
     inkscape:document-units="mm"
     showgrid="false"
     fit-margin-top="5"
     fit-margin-left="5"
     fit-margin-right="5"
     fit-margin-bottom="5"
     inkscape:zoom="1.0796969"
     inkscape:cx="46.772386"
     inkscape:cy="123.18272"
     inkscape:window-width="1754"
     inkscape:window-height="1017"
     inkscape:window-x="158"
     inkscape:window-y="0"
     inkscape:window-maximized="0"
     inkscape:current-layer="surface38800" />
  <defs
     id="defs2" />
  <g
     inkscape:label="Layer 1"
     inkscape:groupmode="layer"
     id="layer1"
     transform="translate(-61.916183,-121.01117)">
    <g
       id="surface38800"
       transform="matrix(0.35277778,0,0,0.35277778,64.182155,123.7815)">
      <path
         style="fill:#005197;fill-opacity:1;fill-rule:nonzero;stroke:none"
         d="m 76.640625,87.535156 h 2.082031 v -5.789062 c 0,-0.742188 0.222656,-1.335938 0.660156,-1.777344 0.4375,-0.445312 1.015626,-0.667969 1.734376,-0.667969 0.652343,0 1.125,0.175781 1.425781,0.523438 0.296875,0.34375 0.449219,0.90625 0.449219,1.679687 v 6.03125 h 2.074218 v -6.070312 c 0,-0.160156 -0.0039,-0.339844 -0.01172,-0.539063 -0.0039,-0.195312 -0.0078,-0.304687 -0.0078,-0.328125 0,-0.996094 -0.285156,-1.757812 -0.859375,-2.289062 -0.574219,-0.527344 -1.402344,-0.792969 -2.484375,-0.792969 -0.652344,0 -1.230469,0.128906 -1.742187,0.386719 -0.511719,0.257812 -0.921876,0.628906 -1.238282,1.117187 v -4.828125 h -2.082031 z m 19.320313,-4.382812 c 0.01953,-0.304688 0.02734,-0.523438 0.02734,-0.664063 0,-1.570312 -0.394531,-2.800781 -1.1875,-3.699219 -0.789062,-0.894531 -1.878906,-1.34375 -3.261719,-1.34375 -1.421874,0 -2.539062,0.457032 -3.347656,1.375 -0.8125,0.917969 -1.214844,2.183594 -1.214844,3.796876 0,1.628906 0.402344,2.910156 1.203126,3.839843 0.804687,0.929688 1.90625,1.394531 3.304687,1.394531 1.117187,0 2.078125,-0.3125 2.878906,-0.933593 0.796875,-0.621094 1.292969,-1.441407 1.480469,-2.460938 h -2.066406 c -0.125,0.5 -0.378906,0.890625 -0.761719,1.171875 -0.378906,0.28125 -0.847656,0.421875 -1.402344,0.421875 -0.777343,0 -1.382812,-0.246093 -1.8125,-0.734375 -0.429684,-0.488281 -0.65234,-1.191406 -0.667966,-2.101562 h 6.820313 c 0,-0.01172 0,-0.03516 0.0078,-0.0625 z m -6.839844,-1.441406 c 0.06641,-0.816407 0.304687,-1.4375 0.707031,-1.867188 0.40625,-0.429688 0.957031,-0.640625 1.65625,-0.640625 0.738281,0 1.308594,0.21875 1.714844,0.65625 0.402343,0.4375 0.609375,1.054687 0.613281,1.851563 z m 14.421876,2.144531 c 0,0.679687 -0.25391,1.234375 -0.76172,1.667969 -0.50781,0.433593 -1.14453,0.652343 -1.91016,0.652343 -0.50781,0 -0.90234,-0.121093 -1.179684,-0.367187 -0.277344,-0.242188 -0.414062,-0.589844 -0.414062,-1.035156 0,-0.398438 0.117187,-0.722657 0.351562,-0.964844 0.234375,-0.246094 0.593754,-0.414063 1.078124,-0.503906 0.16406,-0.03125 0.41406,-0.07422 0.76172,-0.128907 0.94531,-0.136719 1.63672,-0.316406 2.07422,-0.542969 z m 0.56641,3.496093 c 0.30468,0.242188 0.76953,0.363282 1.39843,0.363282 0.16407,0 0.33203,-0.01172 0.51172,-0.03516 0.17578,-0.02344 0.35938,-0.0625 0.54688,-0.109376 V 86.05859 c -0.125,0.01172 -0.21485,0.01953 -0.26563,0.02344 -0.0547,0.0039 -0.0977,0.0039 -0.14062,0.0039 -0.22266,0 -0.37891,-0.05859 -0.46875,-0.171876 -0.0859,-0.117187 -0.12891,-0.359374 -0.12891,-0.734374 v -4.84375 c 0,-0.957032 -0.33203,-1.675782 -0.99219,-2.164063 -0.66015,-0.484375 -1.64062,-0.726563 -2.9375,-0.726563 -1.23828,0 -2.218748,0.28125 -2.933591,0.847657 -0.714844,0.5625 -1.070313,1.332031 -1.070313,2.304687 v 0.160156 h 1.964844 v -0.0703 c 0,-0.496094 0.167969,-0.875 0.50781,-1.140625 0.33594,-0.265625 0.82422,-0.398437 1.45703,-0.398437 0.67969,0 1.1875,0.109374 1.51172,0.332031 0.32813,0.226562 0.48828,0.574219 0.48828,1.042969 0,0.578124 -0.65234,0.953124 -1.96484,1.125 -0.0898,0.01172 -0.16016,0.01953 -0.20703,0.02734 -1.570314,0.199219 -2.656251,0.546875 -3.253908,1.042969 -0.597656,0.5 -0.894531,1.246094 -0.894531,2.234375 0,0.90625 0.277344,1.617187 0.835938,2.128906 0.558593,0.511719 1.332031,0.769531 2.316411,0.769531 0.64062,0 1.24218,-0.140624 1.80078,-0.421874 0.5625,-0.28125 1.04297,-0.675782 1.4414,-1.191407 0.0117,0.503907 0.17188,0.875 0.47657,1.11328 z m 3.95312,0.183594 h 2.08203 v -13.34375 h -2.08203 z m 4.78906,-9.773437 h -1.39453 v 1.539062 h 1.39453 v 6.003907 c 0,0.882812 0.16797,1.496093 0.50391,1.839843 0.33594,0.34375 0.91016,0.515625 1.72656,0.515625 0.23828,0 0.65625,-0.02734 1.25,-0.08984 0.0898,-0.0039 0.16016,-0.01172 0.20703,-0.01953 V 85.90625 l -0.40625,0.01563 c -0.043,0 -0.10937,0.0039 -0.19531,0.0078 -0.0898,0.0078 -0.16016,0.01172 -0.21484,0.01172 -0.3125,0 -0.52735,-0.05859 -0.64063,-0.175781 -0.11719,-0.121094 -0.17187,-0.355469 -0.17187,-0.714844 v -5.75 h 1.6289 v -1.539062 h -1.6289 v -2.691407 h -2.0586 z m 5.26172,9.773437 h 2.08594 v -5.789062 c 0,-0.742188 0.21875,-1.335938 0.65625,-1.777344 0.4375,-0.445312 1.01562,-0.667969 1.73437,-0.667969 0.65235,0 1.12891,0.175781 1.42579,0.523438 0.30078,0.34375 0.44921,0.90625 0.44921,1.679687 v 6.03125 h 2.07422 v -6.070312 c 0,-0.160156 -0.004,-0.339844 -0.008,-0.539063 -0.008,-0.195312 -0.0117,-0.304687 -0.0117,-0.328125 0,-0.996094 -0.28515,-1.757812 -0.85937,-2.289062 -0.57422,-0.527344 -1.40235,-0.792969 -2.48047,-0.792969 -0.65235,0 -1.23438,0.128906 -1.7461,0.386719 -0.50781,0.257812 -0.92187,0.628906 -1.23437,1.117187 v -4.828125 h -2.08594 z m 11.07813,0 h 1.15234 c 0,0.05859 0.004,0.121094 0.008,0.1875 0.008,0.06641 0.008,0.105469 0.008,0.109375 0,0.410157 -0.10546,0.769531 -0.32031,1.070313 -0.21484,0.300781 -0.49609,0.488281 -0.84765,0.5625 v 0.960937 c 0.73046,-0.160156 1.28906,-0.480469 1.67187,-0.960937 0.38281,-0.484375 0.57422,-1.109375 0.57422,-1.875 v -2.375 h -2.24609 z m 18.55078,-4.382812 c 0.0195,-0.304688 0.0273,-0.523438 0.0273,-0.664063 0,-1.570312 -0.39453,-2.800781 -1.1875,-3.699219 -0.78906,-0.894531 -1.87891,-1.34375 -3.26172,-1.34375 -1.42187,0 -2.53906,0.457032 -3.34765,1.375 -0.8125,0.917969 -1.21485,2.183594 -1.21485,3.796876 0,1.628906 0.40235,2.910156 1.20313,3.839843 0.80468,0.929688 1.90625,1.394531 3.30859,1.394531 1.11719,0 2.07422,-0.3125 2.875,-0.933593 0.79688,-0.621094 1.29297,-1.441407 1.48047,-2.460938 h -2.06641 c -0.125,0.5 -0.3789,0.890625 -0.76172,1.171875 -0.3789,0.28125 -0.84765,0.421875 -1.40234,0.421875 -0.78125,0 -1.38281,-0.246093 -1.8125,-0.734375 -0.42969,-0.488281 -0.65234,-1.191406 -0.66797,-2.101562 h 6.82031 c 0,-0.01172 0,-0.03516 0.008,-0.0625 z m -6.83985,-1.441406 c 0.0664,-0.816407 0.30469,-1.4375 0.70703,-1.867188 0.40625,-0.429688 0.95704,-0.640625 1.66016,-0.640625 0.73438,0 1.30469,0.21875 1.71094,0.65625 0.40234,0.4375 0.60937,1.054687 0.61328,1.851563 z m 10.95313,-1.558594 c 0.45703,-0.589844 1.07031,-0.886719 1.83594,-0.886719 0.83984,0 1.48828,0.289063 1.9414,0.875 0.45313,0.582031 0.67578,1.417969 0.67578,2.511719 0,1.097656 -0.21875,1.941406 -0.66015,2.523437 -0.44141,0.582031 -1.07422,0.875 -1.90235,0.875 -0.82422,0 -1.46484,-0.304687 -1.91015,-0.910156 -0.44532,-0.609375 -0.67188,-1.472656 -0.67188,-2.597656 0,-1 0.23047,-1.796875 0.69141,-2.390625 z m 4.42578,11.277344 h 2.01172 V 77.761719 h -2.01172 v 1.292969 c -0.36719,-0.546876 -0.80078,-0.953126 -1.30078,-1.214844 -0.50391,-0.265625 -1.08594,-0.394532 -1.75,-0.394532 -1.24219,0 -2.2461,0.476563 -3.01172,1.429688 -0.76563,0.953125 -1.14453,2.214844 -1.14453,3.777344 0,1.570312 0.3789,2.828125 1.14453,3.777344 0.76562,0.949218 1.77344,1.421874 3.03125,1.421874 0.67578,0 1.26562,-0.132812 1.77344,-0.402343 0.50781,-0.269531 0.92578,-0.667969 1.25781,-1.191407 z m 4.42187,-7.453126 c 0,0.777344 0.0391,1.339844 0.11329,1.6875 0.0742,0.347657 0.20312,0.652344 0.38281,0.910157 0.29297,0.398437 0.67969,0.699219 1.16015,0.902343 0.48438,0.199219 1.0625,0.300782 1.74219,0.300782 0.63281,0 1.21485,-0.136719 1.74219,-0.410156 0.52734,-0.273438 0.95703,-0.664063 1.28125,-1.164063 v 1.332031 h 1.98437 v -9.773437 h -2.0664 V 83.25 c 0,0.886719 -0.21094,1.566406 -0.63672,2.039062 -0.42578,0.46875 -1.04297,0.707032 -1.84375,0.707032 -0.64063,0 -1.09766,-0.167969 -1.375,-0.503906 -0.27344,-0.335938 -0.41016,-0.921876 -0.41016,-1.761719 v -5.96875 h -2.07422 z m 10.83204,3.558594 h 2.08203 v -9.773437 h -2.08203 z m 0,-11.242187 h 2.08203 v -2.101563 h -2.08203 z m 4.77343,1.46875 h -1.39453 v 1.539062 h 1.39453 v 6.003907 c 0,0.882812 0.16797,1.496093 0.50391,1.839843 0.33594,0.34375 0.91016,0.515625 1.72266,0.515625 0.24218,0 0.66015,-0.02734 1.25,-0.08984 0.0937,-0.0039 0.16015,-0.01172 0.21093,-0.01953 V 85.90625 l -0.40625,0.01563 c -0.043,0 -0.10937,0.0039 -0.19531,0.0078 -0.0898,0.0078 -0.16016,0.01172 -0.21484,0.01172 -0.3125,0 -0.52735,-0.05859 -0.64453,-0.175781 -0.11329,-0.121094 -0.17188,-0.355469 -0.17188,-0.714844 v -5.75 h 1.63281 v -1.539062 h -1.63281 v -2.691407 h -2.05469 z m 7.86328,10.269531 -0.28125,0.816406 c -0.11718,0.324219 -0.27734,0.558594 -0.48046,0.691406 -0.20704,0.136719 -0.5,0.207032 -0.88672,0.207032 -0.11719,0 -0.23828,-0.0078 -0.36719,-0.02344 -0.12891,-0.01563 -0.26563,-0.03906 -0.41406,-0.07031 v 1.8125 c 0.1289,0.04297 0.26562,0.07031 0.41797,0.08594 0.15234,0.01563 0.33203,0.02344 0.54296,0.02344 0.84766,0 1.48438,-0.164063 1.91407,-0.488281 0.43359,-0.328126 0.82031,-0.972657 1.16406,-1.9375 l 4.07031,-11.386719 h -2.23047 l -2.40625,7.527343 -2.4375,-7.527343 h -2.28515 z m 17.9336,-4.175781 c 0,0.679687 -0.25391,1.234375 -0.76172,1.667969 -0.50781,0.433593 -1.14453,0.652343 -1.91016,0.652343 -0.50781,0 -0.90234,-0.121093 -1.17968,-0.367187 -0.27735,-0.242188 -0.41407,-0.589844 -0.41407,-1.035156 0,-0.398438 0.11719,-0.722657 0.35157,-0.964844 0.23437,-0.246094 0.59375,-0.414063 1.07812,-0.503906 0.16406,-0.03125 0.41797,-0.07422 0.76172,-0.128907 0.94531,-0.136719 1.64062,-0.316406 2.07422,-0.542969 z m 0.5664,3.496093 c 0.30469,0.242188 0.76954,0.363282 1.39844,0.363282 0.16406,0 0.33203,-0.01172 0.51172,-0.03516 0.17969,-0.02344 0.35938,-0.0625 0.54688,-0.109376 V 86.05859 c -0.125,0.01172 -0.21485,0.01953 -0.26563,0.02344 -0.0508,0.0039 -0.0977,0.0039 -0.14062,0.0039 -0.22266,0 -0.37891,-0.05859 -0.46485,-0.171876 -0.0898,-0.117187 -0.13281,-0.359374 -0.13281,-0.734374 v -4.84375 c 0,-0.957032 -0.33203,-1.675782 -0.99219,-2.164063 -0.66015,-0.484375 -1.64062,-0.726563 -2.9375,-0.726563 -1.23828,0 -2.21484,0.28125 -2.92969,0.847657 -0.71875,0.5625 -1.07421,1.332031 -1.07421,2.304687 v 0.160156 h 1.96484 v -0.0703 c 0,-0.496094 0.16797,-0.875 0.50781,-1.140625 0.33594,-0.265625 0.82422,-0.398437 1.45703,-0.398437 0.6836,0 1.1875,0.109374 1.51172,0.332031 0.32813,0.226562 0.48828,0.574219 0.48828,1.042969 0,0.578124 -0.65234,0.953124 -1.96484,1.125 -0.0898,0.01172 -0.16016,0.01953 -0.20703,0.02734 -1.57031,0.199219 -2.65235,0.546875 -3.25391,1.042969 -0.59375,0.5 -0.89453,1.246094 -0.89453,2.234375 0,0.90625 0.27734,1.617187 0.83984,2.128906 0.55469,0.511719 1.32813,0.769531 2.3125,0.769531 0.64063,0 1.24219,-0.140624 1.80079,-0.421874 0.5625,-0.28125 1.04296,-0.675782 1.4414,-1.191407 0.0117,0.503907 0.17188,0.875 0.47656,1.11328 z m 11.52735,-8.988281 c -0.52735,-0.5625 -1.40625,-0.847656 -2.63672,-0.847656 -0.61719,0 -1.18359,0.136719 -1.69922,0.402344 -0.51562,0.269531 -0.94922,0.65625 -1.29297,1.15625 v -1.3125 h -2 v 9.773437 h 2.07422 v -5.679687 c 0,-0.808594 0.21875,-1.441407 0.65625,-1.894531 0.4375,-0.449219 1.05078,-0.679688 1.83594,-0.679688 0.57422,0 1.01172,0.160156 1.32031,0.472656 0.30859,0.316406 0.46094,0.765625 0.46094,1.359375 v 6.421875 h 2.07422 v -6.214844 c 0,-1.40625 -0.26172,-2.390624 -0.79297,-2.957031 z m 9.24609,1.742188 c 0.44141,0.5625 0.66016,1.386719 0.66016,2.476562 0,1.121094 -0.22266,1.976563 -0.67188,2.566407 -0.44531,0.589843 -1.08984,0.882812 -1.92578,0.882812 -0.80469,0 -1.43359,-0.292969 -1.88672,-0.878906 -0.45312,-0.585938 -0.67968,-1.398438 -0.67968,-2.4375 0,-1.09375 0.22656,-1.941406 0.67578,-2.542969 0.44922,-0.605469 1.07812,-0.90625 1.89062,-0.90625 0.84766,0 1.4961,0.28125 1.9375,0.839844 z m 0.61328,-1.140625 c -0.35547,-0.511719 -0.78515,-0.894532 -1.28906,-1.144532 -0.50391,-0.25 -1.08594,-0.375 -1.74219,-0.375 -1.23828,0 -2.24609,0.480469 -3.01562,1.445313 -0.77344,0.960937 -1.16016,2.226563 -1.16016,3.796875 0,1.554688 0.38672,2.800781 1.16016,3.746094 0.76953,0.945312 1.78125,1.417968 3.03125,1.417968 0.6289,0 1.1875,-0.128906 1.67578,-0.386718 0.49219,-0.253906 0.94531,-0.65625 1.36719,-1.207032 v 1.277344 h 1.98437 v -13.34375 h -2.01172 z m 16.01953,-0.664063 c -0.72265,-0.570312 -1.69531,-0.855469 -2.92187,-0.855469 -1.17578,0 -2.10938,0.273438 -2.79297,0.820313 -0.6875,0.546875 -1.02734,1.285156 -1.02734,2.222656 0,0.734375 0.22656,1.320313 0.6875,1.746094 0.45703,0.429687 1.24218,0.78125 2.35547,1.050781 l 1.46484,0.371094 c 0.59766,0.152344 1.00391,0.3125 1.21094,0.488281 0.20703,0.171875 0.3125,0.402344 0.3125,0.699219 0,0.398438 -0.17578,0.714844 -0.53125,0.945312 -0.35157,0.234376 -0.83203,0.351563 -1.4336,0.351563 -0.73047,0 -1.28906,-0.148437 -1.66797,-0.441406 -0.3789,-0.292969 -0.60156,-0.738281 -0.66015,-1.335938 h -2.01953 c 0,1.113281 0.35937,1.972657 1.08593,2.578125 0.72266,0.605469 1.75,0.910156 3.07032,0.910156 1.33593,0 2.375,-0.285156 3.11718,-0.859374 0.74219,-0.574219 1.11329,-1.378907 1.11329,-2.410157 0,-0.792969 -0.22266,-1.402343 -0.66797,-1.828125 -0.44141,-0.429687 -1.26563,-0.785156 -2.46485,-1.0625 l -1.24218,-0.28125 c -0.61719,-0.136718 -1.04297,-0.300781 -1.28516,-0.492187 -0.24219,-0.191407 -0.36328,-0.4375 -0.36328,-0.746094 0,-0.320313 0.14844,-0.578125 0.44922,-0.769531 0.29687,-0.195313 0.70312,-0.292969 1.21875,-0.292969 0.63672,0 1.13281,0.128906 1.48437,0.382813 0.35156,0.253906 0.54297,0.621093 0.57813,1.105468 h 2.01172 c 0,-0.960937 -0.35938,-1.726562 -1.08204,-2.296875 z m 3.1836,5.675781 c 0,0.777344 0.0391,1.339844 0.11328,1.6875 0.0742,0.347657 0.20312,0.652344 0.38672,0.910157 0.28906,0.398437 0.67578,0.699219 1.15625,0.902343 0.48437,0.199219 1.0625,0.300782 1.73828,0.300782 0.63672,0 1.21484,-0.136719 1.74609,-0.410156 0.52735,-0.273438 0.95313,-0.664063 1.28125,-1.164063 v 1.332031 h 1.98438 v -9.773437 h -2.06641 V 83.25 c 0,0.886719 -0.21094,1.566406 -0.63672,2.039062 -0.42578,0.46875 -1.04297,0.707032 -1.84375,0.707032 -0.64062,0 -1.09765,-0.167969 -1.375,-0.503906 -0.27343,-0.335938 -0.41015,-0.921876 -0.41015,-1.761719 v -5.96875 h -2.07422 z m 17.20312,-5.675781 c -0.71875,-0.570312 -1.69531,-0.855469 -2.91797,-0.855469 -1.17968,0 -2.10937,0.273438 -2.79687,0.820313 -0.68359,0.546875 -1.02734,1.285156 -1.02734,2.222656 0,0.734375 0.23046,1.320313 0.6875,1.746094 0.46093,0.429687 1.24609,0.78125 2.35546,1.050781 l 1.46875,0.371094 c 0.59766,0.152344 1,0.3125 1.20704,0.488281 0.21093,0.171875 0.3125,0.402344 0.3125,0.699219 0,0.398438 -0.17579,0.714844 -0.52735,0.945312 -0.35547,0.234376 -0.83203,0.351563 -1.4375,0.351563 -0.73047,0 -1.28515,-0.148437 -1.66797,-0.441406 -0.3789,-0.292969 -0.59765,-0.738281 -0.66015,-1.335938 h -2.01953 c 0,1.113281 0.36328,1.972657 1.08593,2.578125 0.72657,0.605469 1.75,0.910156 3.07422,0.910156 1.33203,0 2.3711,-0.285156 3.11328,-0.859374 0.74219,-0.574219 1.11328,-1.378907 1.11328,-2.410157 0,-0.792969 -0.21875,-1.402343 -0.66406,-1.828125 -0.44531,-0.429687 -1.26562,-0.785156 -2.46875,-1.0625 l -1.24219,-0.28125 c -0.61328,-0.136718 -1.04296,-0.300781 -1.28515,-0.492187 -0.24219,-0.191407 -0.36328,-0.4375 -0.36328,-0.746094 0,-0.320313 0.15234,-0.578125 0.44922,-0.769531 0.30078,-0.195313 0.70703,-0.292969 1.21875,-0.292969 0.64062,0 1.13671,0.128906 1.48437,0.382813 0.35156,0.253906 0.54688,0.621093 0.58203,1.105468 h 2.01172 c 0,-0.960937 -0.36328,-1.726562 -1.08594,-2.296875 z m 3.48438,-0.539062 h -1.39453 v 1.539062 h 1.39453 v 6.003907 c 0,0.882812 0.16797,1.496093 0.5039,1.839843 0.33204,0.34375 0.91016,0.515625 1.72266,0.515625 0.24219,0 0.66016,-0.02734 1.25,-0.08984 0.0898,-0.0039 0.16016,-0.01172 0.21094,-0.01953 V 85.90625 l -0.41016,0.01563 c -0.043,0 -0.10547,0.0039 -0.19531,0.0078 -0.0859,0.0078 -0.15625,0.01172 -0.21094,0.01172 -0.3125,0 -0.52734,-0.05859 -0.64453,-0.175781 -0.11328,-0.121094 -0.17187,-0.355469 -0.17187,-0.714844 v -5.75 h 1.63281 v -1.539062 h -1.63281 v -2.691407 h -2.05469 z m 10.99609,6.09375 c 0,0.679687 -0.2539,1.234375 -0.76172,1.667969 -0.50781,0.433593 -1.14453,0.652343 -1.91015,0.652343 -0.50782,0 -0.90235,-0.121093 -1.17969,-0.367187 -0.27734,-0.242188 -0.41406,-0.589844 -0.41406,-1.035156 0,-0.398438 0.11718,-0.722657 0.35156,-0.964844 0.23437,-0.246094 0.59375,-0.414063 1.07812,-0.503906 0.16407,-0.03125 0.41797,-0.07422 0.76172,-0.128907 0.94532,-0.136719 1.64063,-0.316406 2.07422,-0.542969 z m 0.56641,3.496093 c 0.30469,0.242188 0.76953,0.363282 1.39844,0.363282 0.16406,0 0.33203,-0.01172 0.51171,-0.03516 0.17969,-0.02344 0.35938,-0.0625 0.54688,-0.109376 V 86.05859 c -0.125,0.01172 -0.21484,0.01953 -0.26563,0.02344 -0.0508,0.0039 -0.0976,0.0039 -0.14062,0.0039 -0.22266,0 -0.37891,-0.05859 -0.46484,-0.171876 -0.0899,-0.117187 -0.13282,-0.359374 -0.13282,-0.734374 v -4.84375 c 0,-0.957032 -0.33203,-1.675782 -0.99218,-2.164063 -0.66016,-0.484375 -1.64063,-0.726563 -2.94141,-0.726563 -1.23438,0 -2.21094,0.28125 -2.92969,0.847657 -0.71484,0.5625 -1.07031,1.332031 -1.07031,2.304687 v 0.160156 h 1.96484 v -0.0703 c 0,-0.496094 0.16797,-0.875 0.50782,-1.140625 0.33593,-0.265625 0.82421,-0.398437 1.45703,-0.398437 0.68359,0 1.1875,0.109374 1.51172,0.332031 0.32812,0.226562 0.49218,0.574219 0.49218,1.042969 0,0.578124 -0.65625,0.953124 -1.96875,1.125 -0.0898,0.01172 -0.16015,0.01953 -0.20703,0.02734 -1.57031,0.199219 -2.65234,0.546875 -3.2539,1.042969 -0.59375,0.5 -0.89454,1.246094 -0.89454,2.234375 0,0.90625 0.28125,1.617187 0.83594,2.128906 0.5586,0.511719 1.33203,0.769531 2.31641,0.769531 0.64062,0 1.23828,-0.140624 1.80078,-0.421874 0.5625,-0.28125 1.04297,-0.675782 1.44141,-1.191407 0.0117,0.503907 0.17187,0.875 0.47656,1.11328 z m 3.91797,0.183594 h 2.08203 v -9.773437 h -2.08203 z m 0,-11.242187 h 2.08203 v -2.101563 h -2.08203 z m 12.14062,2.070312 c -0.53125,-0.5625 -1.41015,-0.847656 -2.64062,-0.847656 -0.61719,0 -1.1836,0.136719 -1.69922,0.402344 -0.51563,0.269531 -0.94531,0.65625 -1.28906,1.15625 v -1.3125 h -2.00391 v 9.773437 h 2.07422 v -5.679687 c 0,-0.808594 0.21875,-1.441407 0.65625,-1.894531 0.4375,-0.449219 1.05078,-0.679688 1.83594,-0.679688 0.57421,0 1.01562,0.160156 1.32031,0.472656 0.30859,0.316406 0.46484,0.765625 0.46484,1.359375 v 6.421875 h 2.07422 v -6.214844 c 0,-1.40625 -0.26562,-2.390624 -0.79297,-2.957031 z m 8.89844,5.492188 c 0,0.679687 -0.25391,1.234375 -0.76172,1.667969 -0.50781,0.433593 -1.14453,0.652343 -1.91016,0.652343 -0.50781,0 -0.89843,-0.121093 -1.17968,-0.367187 -0.27735,-0.242188 -0.41407,-0.589844 -0.41407,-1.035156 0,-0.398438 0.11719,-0.722657 0.35157,-0.964844 0.23437,-0.246094 0.59375,-0.414063 1.07812,-0.503906 0.16406,-0.03125 0.41797,-0.07422 0.76172,-0.128907 0.94922,-0.136719 1.64063,-0.316406 2.07422,-0.542969 z m 0.56641,3.496093 c 0.30468,0.242188 0.76953,0.363282 1.39843,0.363282 0.16407,0 0.33203,-0.01172 0.51172,-0.03516 0.17969,-0.02344 0.35938,-0.0625 0.54688,-0.109376 V 86.05859 c -0.125,0.01172 -0.21485,0.01953 -0.26563,0.02344 -0.0508,0.0039 -0.0976,0.0039 -0.14062,0.0039 -0.22266,0 -0.37891,-0.05859 -0.46485,-0.171876 -0.0898,-0.117187 -0.13281,-0.359374 -0.13281,-0.734374 v -4.84375 c 0,-0.957032 -0.33203,-1.675782 -0.99219,-2.164063 -0.66015,-0.484375 -1.64062,-0.726563 -2.9375,-0.726563 -1.23828,0 -2.21484,0.28125 -2.92968,0.847657 -0.71875,0.5625 -1.07422,1.332031 -1.07422,2.304687 v 0.160156 h 1.96484 v -0.0703 c 0,-0.496094 0.16797,-0.875 0.50781,-1.140625 0.33594,-0.265625 0.82422,-0.398437 1.45703,-0.398437 0.6836,0 1.1875,0.109374 1.51172,0.332031 0.32813,0.226562 0.49219,0.574219 0.49219,1.042969 0,0.578124 -0.65625,0.953124 -1.96875,1.125 -0.0898,0.01172 -0.16016,0.01953 -0.20703,0.02734 -1.57031,0.199219 -2.65234,0.546875 -3.25,1.042969 -0.59766,0.5 -0.89844,1.246094 -0.89844,2.234375 0,0.90625 0.28125,1.617187 0.83985,2.128906 0.55859,0.511719 1.32812,0.769531 2.3125,0.769531 0.64062,0 1.24218,-0.140624 1.80078,-0.421874 0.5625,-0.28125 1.04297,-0.675782 1.4414,-1.191407 0.0117,0.503907 0.17188,0.875 0.47657,1.11328 z m 10.40234,-7.179687 c 0.45312,0.601563 0.67969,1.449219 0.67969,2.542969 0,1.039062 -0.22657,1.851562 -0.67969,2.4375 -0.45313,0.585937 -1.08203,0.878906 -1.88281,0.878906 -0.83594,0 -1.47657,-0.289062 -1.92578,-0.871094 -0.44922,-0.578125 -0.67579,-1.414062 -0.67579,-2.507812 0,-1.117188 0.21875,-1.960938 0.65625,-2.53125 0.4375,-0.570313 1.08594,-0.855469 1.94532,-0.855469 0.80078,0 1.42968,0.300781 1.88281,0.90625 z m -6.44922,7.363281 h 1.98438 v -1.277344 c 0.41406,0.554688 0.86718,0.960938 1.34765,1.214844 0.48438,0.25 1.04688,0.378906 1.69531,0.378906 1.25391,0 2.26954,-0.472656 3.03907,-1.417968 0.76953,-0.945313 1.15625,-2.191406 1.15625,-3.746094 0,-1.574219 -0.38672,-2.84375 -1.15625,-3.800781 -0.76953,-0.960938 -1.77735,-1.441407 -3.02344,-1.441407 -0.64844,0 -1.23047,0.136719 -1.74219,0.40625 -0.51172,0.273438 -0.9414,0.675782 -1.30078,1.203126 v -4.863282 h -2 z m 11.13281,0 h 2.08203 v -9.773437 h -2.08203 z m 0,-11.242187 h 2.08203 v -2.101563 h -2.08203 z m 4.5625,11.242187 h 2.08594 v -13.34375 h -2.08594 z m 4.54688,0 h 2.08594 v -9.773437 h -2.08594 z m 0,-11.242187 h 2.08594 v -2.101563 h -2.08594 z m 4.77344,1.46875 h -1.39454 v 1.539062 h 1.39454 v 6.003907 c 0,0.882812 0.16796,1.496093 0.5039,1.839843 0.33594,0.34375 0.91016,0.515625 1.72656,0.515625 0.23829,0 0.65625,-0.02734 1.25,-0.08984 0.0899,-0.0039 0.16016,-0.01172 0.20704,-0.01953 V 85.90625 l -0.40625,0.01563 c -0.043,0 -0.10938,0.0039 -0.19532,0.0078 -0.0898,0.0078 -0.16015,0.01172 -0.21484,0.01172 -0.3125,0 -0.52734,-0.05859 -0.64063,-0.175781 -0.11718,-0.121094 -0.17187,-0.355469 -0.17187,-0.714844 v -5.75 h 1.62891 v -1.539062 h -1.62891 v -2.691407 h -2.05859 z m 7.86328,10.269531 -0.28125,0.816406 c -0.11328,0.324219 -0.27344,0.558594 -0.48047,0.691406 -0.20703,0.136719 -0.5,0.207032 -0.88672,0.207032 -0.11719,0 -0.23828,-0.0078 -0.36719,-0.02344 -0.1289,-0.01563 -0.26562,-0.03906 -0.41406,-0.07031 v 1.8125 c 0.12891,0.04297 0.26562,0.07031 0.41797,0.08594 0.15234,0.01563 0.33203,0.02344 0.54297,0.02344 0.84765,0 1.48437,-0.164063 1.91797,-0.488281 0.42968,-0.328126 0.82031,-0.972657 1.16406,-1.9375 l 4.0664,-11.386719 h -2.23046 l -2.41016,7.527343 -2.43359,-7.527343 h -2.28516 l 3.67969,10.269531"
         id="path824" />
      <path
         style="fill:#005197;fill-opacity:1;fill-rule:nonzero;stroke:none"
         d="m 85.042969,56.445312 c -0.867188,-0.765624 -2.027344,-1.144531 -3.484375,-1.144531 -1.496094,0 -2.695313,0.347657 -3.597656,1.042969 -0.90625,0.699219 -1.355469,1.601562 -1.355469,2.714844 0,1.042968 0.308593,1.871094 0.921875,2.476562 0.617187,0.605469 1.671875,1.105469 3.164062,1.5 0.132813,0.03125 0.328125,0.07813 0.585938,0.144532 1.207031,0.296874 1.988281,0.601562 2.335937,0.921874 0.214844,0.195313 0.386719,0.425782 0.523438,0.695313 0.136719,0.269531 0.203125,0.507813 0.203125,0.71875 0,0.539063 -0.242188,0.992187 -0.730469,1.359375 C 83.125,67.242188 82.5,67.425781 81.742188,67.425781 c -1.011719,0 -1.808594,-0.238281 -2.398438,-0.714843 -0.585938,-0.476563 -0.914062,-1.144532 -0.972656,-2.011719 h -2.15625 c 0.06641,1.5 0.5625,2.644531 1.480468,3.445312 0.921876,0.796875 2.210938,1.195313 3.863282,1.195313 1.570312,0 2.824218,-0.382813 3.765625,-1.148438 0.9375,-0.761718 1.40625,-1.773437 1.40625,-3.027344 0,-1.039062 -0.300781,-1.847656 -0.898438,-2.429687 -0.601562,-0.578125 -1.882812,-1.117187 -3.847656,-1.613281 -1.292969,-0.332032 -2.140625,-0.65625 -2.542969,-0.980469 -0.40625,-0.324219 -0.609375,-0.738281 -0.609375,-1.246094 0,-0.5 0.230469,-0.921875 0.691407,-1.257812 0.457031,-0.339844 1.050781,-0.507813 1.773437,-0.507813 0.875,0 1.574219,0.214844 2.097656,0.644532 0.519531,0.425781 0.808594,1.019531 0.855469,1.773437 l 2.109375,-0.0078 c -0.01172,-1.300781 -0.449219,-2.328124 -1.316406,-3.09375 z m 10.757812,3.421876 c -0.75,-0.648438 -1.746093,-0.972657 -2.984375,-0.972657 -1.417968,0 -2.53125,0.464844 -3.335937,1.390625 -0.808594,0.925782 -1.210938,2.207032 -1.210938,3.835938 0,1.59375 0.390625,2.855468 1.171875,3.785156 0.777344,0.929688 1.832032,1.394531 3.167969,1.394531 1.296875,0 2.339844,-0.34375 3.121094,-1.035156 0.78125,-0.691406 1.21875,-1.644531 1.316406,-2.859375 h -2.011719 c -0.08984,0.664062 -0.324218,1.175781 -0.710937,1.527344 -0.382813,0.351562 -0.882813,0.53125 -1.507813,0.53125 -0.777344,0 -1.371094,-0.289063 -1.78125,-0.867188 -0.414062,-0.574218 -0.617187,-1.414062 -0.617187,-2.511718 0,-1.125 0.207031,-1.972657 0.621093,-2.550782 0.414063,-0.578125 1.023438,-0.867187 1.832032,-0.867187 0.605468,0 1.09375,0.171875 1.46875,0.503906 0.375,0.335937 0.589844,0.792969 0.640625,1.371094 h 2.039062 c -0.05859,-1.132813 -0.464843,-2.023438 -1.21875,-2.675781 z m 9.218749,1.691406 c 0.45703,0.589844 0.6875,1.4375 0.6875,2.542968 0,1.105469 -0.23047,1.953126 -0.6875,2.539063 -0.46094,0.582031 -1.12109,0.878906 -1.98437,0.878906 -0.8711,0 -1.53516,-0.296875 -2,-0.878906 -0.46094,-0.585937 -0.69141,-1.433594 -0.69141,-2.539063 0,-1.105468 0.23438,-1.953124 0.69922,-2.542968 0.46484,-0.59375 1.12891,-0.890625 1.99219,-0.890625 0.86328,0 1.52343,0.296875 1.98437,0.890625 z m -5.515624,-1.28125 c -0.847656,0.917968 -1.269531,2.195312 -1.269531,3.824218 0,1.632813 0.421875,2.90625 1.273437,3.824219 0.847658,0.917969 2.023438,1.375 3.527348,1.375 1.49609,0 2.66797,-0.460937 3.51953,-1.378906 0.84765,-0.921875 1.26953,-2.195313 1.26953,-3.820313 0,-1.625 -0.42578,-2.898437 -1.28125,-3.820312 -0.85156,-0.925781 -2.02734,-1.386719 -3.52734,-1.386719 -1.4961,0 -2.66797,0.460938 -3.511724,1.382813 z m 10.488284,-1.066406 h -1.39453 V 60.75 h 1.39453 v 6.007812 c 0,0.878907 0.16406,1.492188 0.5,1.835938 0.33594,0.347656 0.91015,0.519531 1.72656,0.519531 0.24219,0 0.66016,-0.03125 1.25,-0.09375 0.0898,-0.0039 0.16016,-0.01172 0.20703,-0.01563 v -1.648437 l -0.40625,0.01563 c -0.043,0 -0.10937,0.0039 -0.19531,0.01172 -0.0859,0.0039 -0.16016,0.0078 -0.21094,0.0078 -0.3164,0 -0.53125,-0.05859 -0.64453,-0.175781 -0.11328,-0.117188 -0.17187,-0.355469 -0.17187,-0.710938 V 60.75 h 1.6289 v -1.539062 h -1.6289 v -2.6875 h -2.05469 z m 5.5039,0 h -1.39453 V 60.75 h 1.39453 v 6.007812 c 0,0.878907 0.16797,1.492188 0.50391,1.835938 0.33594,0.347656 0.91016,0.519531 1.72656,0.519531 0.24219,0 0.65625,-0.03125 1.25,-0.09375 0.0898,-0.0039 0.16016,-0.01172 0.20703,-0.01563 v -1.648437 l -0.40625,0.01563 c -0.043,0 -0.10937,0.0039 -0.19531,0.01172 -0.0898,0.0039 -0.16015,0.0078 -0.21484,0.0078 -0.3125,0 -0.52735,-0.05859 -0.64063,-0.175781 -0.11718,-0.117188 -0.17187,-0.355469 -0.17187,-0.710938 V 60.75 h 1.6289 v -1.539062 h -1.6289 v -2.6875 h -2.0586 z m 5.26563,9.773437 h 2.08203 v -9.773437 h -2.08203 z m 0,-11.238281 h 2.08203 v -2.101563 h -2.08203 z M 131.66016,59.75 c -0.72266,-0.570312 -1.69532,-0.855469 -2.92188,-0.855469 -1.17578,0 -2.10547,0.273438 -2.79297,0.820313 -0.68359,0.546875 -1.02734,1.289062 -1.02734,2.222656 0,0.738281 0.23047,1.320312 0.6875,1.75 0.45703,0.425781 1.24609,0.777344 2.35547,1.050781 l 1.46875,0.371094 c 0.59765,0.148437 1,0.3125 1.20703,0.484375 0.20703,0.171875 0.3125,0.40625 0.3125,0.699219 0,0.402343 -0.17578,0.714843 -0.52735,0.949219 -0.35546,0.230468 -0.83203,0.347656 -1.4375,0.347656 -0.73046,0 -1.28515,-0.144532 -1.66796,-0.4375 -0.37891,-0.292969 -0.59766,-0.738282 -0.66016,-1.335938 h -2.01953 c 0,1.109375 0.36328,1.96875 1.08594,2.574219 0.72656,0.609375 1.75,0.910156 3.07031,0.910156 1.33594,0 2.375,-0.285156 3.11719,-0.859375 0.74218,-0.574218 1.11328,-1.375 1.11328,-2.410156 0,-0.789062 -0.22266,-1.398438 -0.66407,-1.828125 -0.44531,-0.429687 -1.26953,-0.78125 -2.46875,-1.058594 l -1.24218,-0.28125 c -0.61719,-0.140625 -1.04297,-0.304687 -1.28516,-0.496093 C 127.12109,62.179688 127,61.929688 127,61.621094 c 0,-0.320313 0.14844,-0.578125 0.44922,-0.769532 0.29687,-0.195312 0.70312,-0.289062 1.21875,-0.289062 0.64062,0 1.13281,0.125 1.48437,0.378906 0.35157,0.253906 0.54297,0.621094 0.57813,1.105469 h 2.01172 c 0,-0.960937 -0.35938,-1.726563 -1.08203,-2.296875 z m 3.23828,9.234375 h 2.08203 v -5.785156 c 0,-0.746094 0.21875,-1.339844 0.65625,-1.78125 0.4375,-0.445313 1.01562,-0.667969 1.73437,-0.667969 0.65235,0 1.12891,0.175781 1.42969,0.523438 0.29688,0.347656 0.44531,0.90625 0.44531,1.679687 v 6.03125 h 2.07422 v -6.066406 c 0,-0.164063 0,-0.34375 -0.008,-0.539063 -0.004,-0.199218 -0.008,-0.308594 -0.008,-0.332031 0,-0.996094 -0.28907,-1.757813 -0.86328,-2.285156 -0.57032,-0.53125 -1.39844,-0.792969 -2.48047,-0.792969 -0.65235,0 -1.23438,0.125 -1.74219,0.382812 -0.51172,0.257813 -0.92188,0.628907 -1.23828,1.117188 v -4.824219 h -2.08203 z m 22.83203,-5.308594 h -3.96485 L 155.75,57.890625 Z m -8.07031,5.308594 h 2.32031 l 1.16797,-3.449219 h 5.1914 l 1.19532,3.449219 h 2.37109 l -4.89844,-13.339844 h -2.5 z m 13.47265,0 h 2.08203 V 55.644531 h -2.08203 z m 4.58203,0 h 2.08203 V 55.644531 h -2.08203 z m 4.54688,0 h 2.08203 v -9.773437 h -2.08203 z m 0,-11.238281 h 2.08203 v -2.101563 h -2.08203 z m 10.26172,7.5625 c 0,0.675781 -0.25391,1.230468 -0.76172,1.664062 -0.50781,0.4375 -1.14453,0.652344 -1.91016,0.652344 -0.50781,0 -0.90234,-0.121094 -1.17969,-0.367188 -0.27734,-0.242187 -0.41406,-0.589843 -0.41406,-1.035156 0,-0.398437 0.11719,-0.71875 0.35156,-0.964844 0.23438,-0.246093 0.59375,-0.414062 1.07813,-0.503906 0.16406,-0.02734 0.41797,-0.07031 0.76172,-0.125 0.94531,-0.140625 1.64062,-0.320312 2.07422,-0.542968 z m 0.5664,3.496094 c 0.30469,0.242187 0.76953,0.359374 1.39844,0.359374 0.16406,0 0.33203,-0.01172 0.51172,-0.03516 0.17969,-0.02344 0.35937,-0.05859 0.54687,-0.109375 v -1.511719 c -0.125,0.01172 -0.21484,0.01953 -0.26562,0.02344 -0.0508,0.0039 -0.0977,0.0039 -0.14063,0.0039 -0.22265,0 -0.3789,-0.05859 -0.46484,-0.171875 -0.0898,-0.113281 -0.13281,-0.359375 -0.13281,-0.734375 v -4.84375 c 0,-0.953125 -0.33203,-1.675781 -0.99219,-2.160156 -0.66016,-0.488281 -1.64062,-0.730469 -2.94141,-0.730469 -1.23437,0 -2.21093,0.28125 -2.92968,0.847657 -0.71485,0.5625 -1.07032,1.332031 -1.07032,2.304687 v 0.164063 h 1.96485 v -0.07422 c 0,-0.492188 0.16797,-0.875 0.50781,-1.140625 0.33594,-0.265625 0.82422,-0.398438 1.45703,-0.398438 0.6836,0 1.1875,0.113282 1.51172,0.335938 0.32813,0.222656 0.48828,0.570312 0.48828,1.039062 0,0.582032 -0.65234,0.957032 -1.96484,1.125 -0.0898,0.01172 -0.16016,0.01953 -0.20703,0.02734 -1.57032,0.199219 -2.65235,0.546875 -3.25391,1.046875 -0.59375,0.496094 -0.89453,1.242187 -0.89453,2.230469 0,0.90625 0.27734,1.617187 0.83594,2.128906 0.55859,0.515625 1.33203,0.769531 2.3164,0.769531 0.64063,0 1.23828,-0.140625 1.80078,-0.417969 0.5625,-0.28125 1.04297,-0.679687 1.44141,-1.191406 0.0117,0.5 0.17188,0.871094 0.47656,1.113282 z M 194.61719,59.8125 c -0.52735,-0.5625 -1.40625,-0.84375 -2.63672,-0.84375 -0.61719,0 -1.1836,0.132812 -1.69922,0.402344 -0.51563,0.269531 -0.94531,0.652344 -1.29297,1.15625 v -1.316406 h -2 v 9.773437 h 2.07422 v -5.679687 c 0,-0.808594 0.21875,-1.4375 0.65625,-1.890626 0.4375,-0.453124 1.05078,-0.679687 1.83594,-0.679687 0.57031,0 1.01172,0.15625 1.32031,0.46875 0.30859,0.316406 0.46094,0.769531 0.46094,1.359375 v 6.421875 h 2.07422 v -6.210937 c 0,-1.410157 -0.26172,-2.394532 -0.79297,-2.960938 z m 10.18359,0.05469 c -0.75391,-0.648438 -1.74609,-0.972657 -2.98437,-0.972657 -1.42188,0 -2.53516,0.464844 -3.33985,1.390625 -0.80469,0.925782 -1.20703,2.207032 -1.20703,3.835938 0,1.59375 0.38672,2.855468 1.16797,3.785156 0.77734,0.929688 1.83594,1.394531 3.16797,1.394531 1.30078,0 2.33984,-0.34375 3.12109,-1.035156 0.78125,-0.691406 1.22266,-1.644531 1.32031,-2.859375 h -2.01171 c -0.0937,0.664062 -0.32813,1.175781 -0.71094,1.527344 -0.38672,0.351562 -0.88672,0.53125 -1.50781,0.53125 -0.78125,0 -1.375,-0.289063 -1.78516,-0.867188 -0.41016,-0.574218 -0.61719,-1.414062 -0.61719,-2.511718 0,-1.125 0.20703,-1.972657 0.6211,-2.550782 0.41406,-0.578125 1.02343,-0.867187 1.83203,-0.867187 0.60547,0 1.09375,0.171875 1.46875,0.503906 0.375,0.335937 0.58984,0.792969 0.64453,1.371094 h 2.03906 c -0.0625,-1.132813 -0.46875,-2.023438 -1.21875,-2.675781 z m 11.43359,4.734374 c 0.0195,-0.300781 0.0273,-0.523437 0.0273,-0.660156 0,-1.570312 -0.39453,-2.804687 -1.1875,-3.703125 -0.78906,-0.894531 -1.87891,-1.34375 -3.26172,-1.34375 -1.42188,0 -2.53906,0.460938 -3.34766,1.378907 -0.8125,0.917968 -1.21484,2.179687 -1.21484,3.792968 0,1.628906 0.40234,2.910156 1.20312,3.839844 0.80469,0.929688 1.90625,1.394531 3.3086,1.394531 1.11719,0 2.07422,-0.308593 2.875,-0.933593 0.80078,-0.621094 1.29297,-1.441407 1.48047,-2.460938 h -2.06641 c -0.125,0.5 -0.37891,0.890625 -0.76172,1.171875 -0.3789,0.28125 -0.84765,0.421875 -1.40234,0.421875 -0.77735,0 -1.38281,-0.246094 -1.8125,-0.734375 -0.42969,-0.488281 -0.65235,-1.1875 -0.66797,-2.101563 h 6.82031 c 0,-0.01172 0,-0.03125 0.008,-0.0625 z m -6.83984,-1.441406 c 0.0664,-0.816406 0.30469,-1.4375 0.70703,-1.867187 0.40625,-0.425781 0.95703,-0.640625 1.66016,-0.640625 0.73437,0 1.30469,0.21875 1.71094,0.65625 0.40234,0.4375 0.60937,1.054687 0.61718,1.851562 z m 17.91797,-7.578125 c -0.57422,-0.06641 -0.97266,-0.101562 -1.19531,-0.101562 -0.84766,0 -1.47657,0.207031 -1.89063,0.625 -0.41406,0.417969 -0.62109,1.050781 -0.62109,1.902343 v 1.203126 h -1.5 V 60.75 h 1.5 v 8.234375 h 2.05859 V 60.75 h 1.71094 v -1.539062 h -1.71094 V 58.46875 c 0,-0.476562 0.0703,-0.792969 0.21094,-0.949219 0.14453,-0.160156 0.40234,-0.238281 0.77344,-0.238281 0.0742,0 0.16797,0.0078 0.28125,0.01953 l 0.44531,0.03516 v -1.746094 z m 7.57031,5.976563 c 0.46094,0.589844 0.6875,1.4375 0.6875,2.542968 0,1.105469 -0.22656,1.953126 -0.6875,2.539063 -0.45703,0.582031 -1.12109,0.878906 -1.98437,0.878906 -0.86719,0 -1.53516,-0.296875 -1.9961,-0.878906 -0.46093,-0.585937 -0.6914,-1.433594 -0.6914,-2.539063 0,-1.105468 0.23047,-1.953124 0.69531,-2.542968 0.46484,-0.59375 1.12891,-0.890625 1.99219,-0.890625 0.86328,0 1.52734,0.296875 1.98437,0.890625 z m -5.51562,-1.28125 c -0.84375,0.917968 -1.26563,2.195312 -1.26563,3.824218 0,1.632813 0.42188,2.90625 1.26953,3.824219 0.84766,0.917969 2.02344,1.375 3.52735,1.375 1.5,0 2.67187,-0.460937 3.51953,-1.378906 0.84765,-0.921875 1.27344,-2.195313 1.27344,-3.820313 0,-1.625 -0.42579,-2.898437 -1.28125,-3.820312 -0.85547,-0.925781 -2.03125,-1.386719 -3.52735,-1.386719 -1.5,0 -2.66797,0.460938 -3.51562,1.382813 z m 14.9375,-1.292969 c -0.0312,0 -0.0508,0 -0.0547,0 -0.61719,0 -1.15234,0.164063 -1.60547,0.484375 -0.45312,0.324219 -0.82031,0.8125 -1.10547,1.464844 V 59.21094 h -1.94531 v 9.773437 h 2.05469 v -5.324219 c 0,-0.839844 0.21093,-1.46875 0.6289,-1.890625 0.42188,-0.417969 1.04688,-0.628906 1.87891,-0.628906 h 0.55469 v -2.136719 c -0.125,0 -0.26172,-0.0078 -0.40625,-0.01953 z m 7.23437,10 h 2.1836 v -5.878906 h 6.07031 v -1.929688 h -6.07031 v -3.578125 h 6.92187 v -1.953125 h -9.10547 z m 16.61328,-7.425781 c 0.45703,0.589844 0.6875,1.4375 0.6875,2.542968 0,1.105469 -0.23047,1.953126 -0.6875,2.539063 -0.46093,0.582031 -1.12109,0.878906 -1.98437,0.878906 -0.8711,0 -1.53516,-0.296875 -1.9961,-0.878906 -0.46093,-0.585937 -0.69531,-1.433594 -0.69531,-2.539063 0,-1.105468 0.23438,-1.953124 0.69922,-2.542968 0.46484,-0.59375 1.12891,-0.890625 1.99219,-0.890625 0.86328,0 1.52344,0.296875 1.98437,0.890625 z m -5.51562,-1.28125 c -0.84766,0.917968 -1.26953,2.195312 -1.26953,3.824218 0,1.632813 0.42578,2.90625 1.27343,3.824219 0.84766,0.917969 2.02344,1.375 3.52735,1.375 1.49609,0 2.67187,-0.460937 3.51953,-1.378906 0.84766,-0.921875 1.27344,-2.195313 1.27344,-3.820313 0,-1.625 -0.42969,-2.898437 -1.28125,-3.820312 -0.85547,-0.925781 -2.03125,-1.386719 -3.53125,-1.386719 -1.4961,0 -2.66797,0.460938 -3.51172,1.382813 z m 16.51172,1.28125 c 0.45703,0.589844 0.6875,1.4375 0.6875,2.542968 0,1.105469 -0.23047,1.953126 -0.6875,2.539063 -0.46094,0.582031 -1.1211,0.878906 -1.98438,0.878906 -0.87109,0 -1.53515,-0.296875 -1.99609,-0.878906 -0.46485,-0.585937 -0.69531,-1.433594 -0.69531,-2.539063 0,-1.105468 0.23437,-1.953124 0.69921,-2.542968 0.46485,-0.59375 1.12891,-0.890625 1.99219,-0.890625 0.86328,0 1.52344,0.296875 1.98438,0.890625 z m -5.51563,-1.28125 c -0.84765,0.917968 -1.26953,2.195312 -1.26953,3.824218 0,1.632813 0.42188,2.90625 1.27344,3.824219 0.84765,0.917969 2.02344,1.375 3.52734,1.375 1.4961,0 2.67188,-0.460937 3.51953,-1.378906 0.84766,-0.921875 1.26953,-2.195313 1.26953,-3.820313 0,-1.625 -0.42578,-2.898437 -1.28125,-3.820312 -0.85156,-0.925781 -2.02734,-1.386719 -3.52734,-1.386719 -1.49609,0 -2.66797,0.460938 -3.51172,1.382813 z m 16.32031,1.28125 c 0.44141,0.558594 0.66016,1.386718 0.66016,2.472656 0,1.121094 -0.22266,1.976562 -0.66797,2.566406 -0.44922,0.589844 -1.08984,0.882813 -1.92969,0.882813 -0.80468,0 -1.43359,-0.292969 -1.88281,-0.878907 -0.45312,-0.585937 -0.68359,-1.394531 -0.68359,-2.433593 0,-1.09375 0.22656,-1.941407 0.67578,-2.546875 0.44922,-0.601563 1.07812,-0.90625 1.89062,-0.90625 0.85157,0 1.4961,0.28125 1.9375,0.84375 z m 0.61719,-1.140625 c -0.35937,-0.515625 -0.78906,-0.894531 -1.29297,-1.148438 -0.5039,-0.25 -1.08593,-0.375 -1.74218,-0.375 -1.23829,0 -2.2461,0.480469 -3.01563,1.445313 -0.77344,0.960937 -1.16016,2.230468 -1.16016,3.800781 0,1.550781 0.38672,2.800781 1.16016,3.742187 0.76953,0.945313 1.78516,1.417969 3.03516,1.417969 0.625,0 1.18359,-0.128906 1.67187,-0.382812 0.49219,-0.257813 0.94531,-0.660157 1.3711,-1.210938 v 1.277344 h 1.98046 V 55.644531 h -2.00781 z m 4.9336,8.566406 H 297.75 V 66.64844 h -2.24609 z m 0,-7.363281 H 297.75 v -2.335938 h -2.24609 v 2.335938"
         id="path826" />
      <path
         style="fill:#005197;fill-opacity:1;fill-rule:nonzero;stroke:none"
         d="m 80.097656,48.679688 c 1.9375,1.699218 4.765625,2.550781 8.480469,2.550781 3.933594,0 6.988281,-0.792969 9.171875,-2.378907 2.179688,-1.582031 3.26953,-3.800781 3.26953,-6.644531 0,-1.242187 -0.24219,-2.371093 -0.71875,-3.386719 -0.480468,-1.015624 -1.179686,-1.898437 -2.097655,-2.652343 -0.90625,-0.722657 -3.167969,-1.675781 -6.792969,-2.851563 l -0.289062,-0.09766 c -0.335938,-0.101562 -0.824219,-0.257812 -1.457032,-0.464844 -3.507812,-1.125 -5.257812,-2.324218 -5.257812,-3.589844 0,-0.75 0.367188,-1.371093 1.105469,-1.855468 0.738281,-0.484375 1.695312,-0.726563 2.871093,-0.726563 1.476563,0 2.605469,0.316407 3.386719,0.949219 0.785157,0.636719 1.253907,1.621094 1.40625,2.953125 h 6.890629 c 0,-2.886719 -1.007816,-5.175781 -3.027348,-6.871094 -2.015624,-1.695312 -4.75,-2.542969 -8.191406,-2.542969 -3.503906,0 -6.285156,0.804688 -8.335937,2.414063 -2.050781,1.613281 -3.074219,3.785156 -3.074219,6.511719 0,1.785156 0.53125,3.347656 1.601562,4.6875 1.066407,1.339844 2.628907,2.417968 4.6875,3.234375 1.421876,0.566406 3.167969,1.15625 5.238282,1.765625 2.070312,0.605468 3.371094,1.054687 3.902344,1.339844 0.347656,0.179687 0.621093,0.449218 0.816406,0.804687 0.191406,0.355469 0.289062,0.761719 0.289062,1.210937 0,0.894532 -0.40625,1.585938 -1.222656,2.078126 -0.816406,0.492187 -1.964844,0.738281 -3.453125,0.738281 -1.75,0 -3.074219,-0.410157 -3.980469,-1.234375 -0.90625,-0.820313 -1.382812,-2.046875 -1.433594,-3.675782 h -7.027343 c 0.21875,3.453126 1.300781,6.03125 3.242187,7.734376 z m 41.835934,-8.257813 c -0.24609,1.527344 -0.86328,2.691406 -1.85546,3.492187 -0.98829,0.800782 -2.30469,1.203126 -3.94922,1.203126 -2.04297,0 -3.62891,-0.773438 -4.75391,-2.320313 -1.125,-1.542969 -1.6875,-3.714844 -1.6875,-6.511719 0,-2.808594 0.59375,-5.019531 1.78516,-6.636718 1.1914,-1.617188 2.80859,-2.425782 4.85156,-2.425782 1.52734,0 2.76172,0.347656 3.69922,1.039063 0.9375,0.691406 1.57422,1.722656 1.91015,3.09375 h 6.8711 c -0.3125,-3.15625 -1.5625,-5.648438 -3.75391,-7.472657 -2.19531,-1.824218 -5.02734,-2.734374 -8.49219,-2.734374 -4.375,0 -7.86718,1.378906 -10.47265,4.132812 -2.60547,2.757812 -3.91016,6.449219 -3.91016,11.082031 0,4.453125 1.28125,8.042969 3.84375,10.773438 2.5586,2.730469 5.92969,4.09375 10.10938,4.09375 3.49609,0 6.34375,-0.945313 8.55078,-2.832031 2.20703,-1.890626 3.55468,-4.550782 4.04687,-7.976563 z m 20.27344,-11.007813 3.18359,9.863282 h -6.25 z m -14.03125,21.019532 h 7.58984 l 1.62891,-5.238282 h 9.55078 l 1.7461,5.238282 h 7.85937 L 146.46094,21.847656 h -8 z m 36.51953,0 V 39.625 h 11.48828 v -5.921875 h -11.48828 v -5.917969 h 13.23828 v -5.9375 h -20.51562 v 28.585938 h 7.27734"
         id="path828" />
      <path
         style="fill:#005197;fill-opacity:1;fill-rule:nonzero;stroke:none"
         d="m 42.699219,6.335938 h -0.0078 c -0.761718,0 -1.375,0.632812 -1.347656,1.394531 l 0.488281,14.003906 c 0.03906,1.070313 -0.765625,2.035156 -1.839843,2.078125 -1.101563,0.04687 -2.011719,-0.832031 -2.011719,-1.925781 V 7.863281 c 0,-0.851562 -0.691407,-1.542969 -1.542969,-1.542969 -0.851562,0 -1.542969,0.691407 -1.542969,1.542969 v 13.957031 c 0,0.992188 -0.726562,1.875 -1.714843,1.984376 -1.191407,0.125 -2.1875,-0.828126 -2.140626,-1.992188 L 31.527344,7.730469 c 0.02344,-0.761719 -0.585938,-1.394531 -1.347656,-1.394531 -0.664063,0 -1.230469,0.488281 -1.332032,1.148437 l -2.519531,16.917969 c -0.320313,2.144531 0.652344,4.28125 2.480469,5.453125 l 3.222656,2.0625 c 1.453125,0.929687 2.296875,2.5625 2.210938,4.28125 L 33.714844,46.78125 c -0.03125,0.617188 0.710937,0.957031 1.160156,0.527344 1.089844,-1.054688 2.261719,-2.019532 3.507812,-2.890625 0.390626,-0.273438 0.621094,-0.726563 0.597657,-1.203125 l -0.347657,-7.015625 c -0.08594,-1.71875 0.757813,-3.351563 2.207032,-4.28125 l 3.226562,-2.0625 c 1.828125,-1.171875 2.796875,-3.304688 2.476563,-5.453125 L 44.03125,7.484375 C 43.933594,6.824219 43.367188,6.335938 42.699219,6.335938"
         id="path830" />
      <path
         style="fill:#006630;fill-opacity:1;fill-rule:nonzero;stroke:none"
         d="m 61.144531,43.492188 c 0.8125,0.214843 1.238281,1.101562 0.898438,1.867187 C 58.710938,52.871094 51.1875,58.113281 42.4375,58.113281 c -0.683594,0 -1.359375,-0.03125 -2.027344,-0.09375 -0.371094,-0.03516 -0.679687,0.269531 -0.664062,0.640625 L 40.347656,70.8125 c 0.113282,2.234375 -1.671875,4.109375 -3.910156,4.109375 -2.238281,0 -4.023438,-1.875 -3.914062,-4.113281 l 0.734374,-14.757813 0.02344,-0.464843 c 0.03125,-0.628907 0.234375,-1.234376 0.582031,-1.757813 1.476563,-2.191406 3.285157,-4.140625 5.359375,-5.761719 4.285156,-3.375 9.6875,-5.386718 15.5625,-5.386718 2.199219,0 4.328125,0.285156 6.359375,0.8125"
         id="path832" />
      <path
         style="fill:#006630;fill-opacity:1;fill-rule:nonzero;stroke:none"
         d="m 31.960938,51.734375 c 0.242187,0.671875 -0.09375,1.429687 -0.746094,1.660156 -1.941406,0.675781 -4.03125,0.988281 -6.191406,0.851563 -6.660157,-0.417969 -12.136719,-4.949219 -14.375,-11.113282 -0.246094,-0.675781 0.08984,-1.433593 0.742187,-1.660156 1.941406,-0.679687 4.03125,-0.988281 6.195313,-0.855468 6.660156,0.421874 12.132812,4.949218 14.375,11.117187"
         id="path834" />
      <path
         style="fill:#9a3a06;fill-opacity:1;fill-rule:nonzero;stroke:none"
         d="M 35.449219,89.214844 13.441406,76.355469 C 9.210938,73.882812 7.75,69.550781 7.75,64.164062 v -8.246093 c 1.546875,0.636719 3.214844,2.429687 3.574219,4.238281 l 1.046875,5.304688 c 0.777344,3.945312 2.289062,4.570312 4.921875,6.109374 l 6.410156,3.746094 c 0,-0.800781 -0.324219,-1.441406 -1.503906,-2.128906 L 18.65625,71.117188 c -1.613281,-0.945313 -3.230469,-2.246094 -2.707031,-4.207032 l 8.769531,2.796875 c 6.164062,1.652344 10.730469,7.574219 10.730469,12.5625 v 6.945313"
         id="path836" />
      <path
         style="fill:#9a3a06;fill-opacity:1;fill-rule:nonzero;stroke:none;stroke-width:0.999983"
         d="M 37.28125,89.213717 59.289062,76.354778 c 4.230469,-2.472575 5.691407,-6.804458 5.691407,-12.190995 v -8.245814 c -1.550781,0.636697 -3.214844,2.429604 -3.574219,4.238138 l -1.046875,5.304508 c -0.777344,3.945178 -2.292969,4.570157 -4.925781,6.109167 l -6.410156,3.745967 c 0,-0.800754 0.328124,-1.441357 1.507812,-2.128834 l 3.542969,-2.070242 c 1.613281,-0.945282 3.230469,-2.246018 2.703125,-4.206889 l -8.765625,2.79678 C 41.847656,71.358852 37.28125,77.280526 37.28125,82.268638 v 6.945079"
         id="path838" />
    </g>
  </g>
</svg>
